# AST/ASF file generated using VICON BodyLanguage
# -----------------------------------------------
:version 1.10
:name VICON
:units
  mass 1.0
  length 0.45
  angle deg
:documentation
   .ast/.asf automatically generated from VICON data using
   VICON BodyBuilder and BodyLanguage model FoxedUp or BRILLIANT.MOD
:root
   order TX TY TZ RX RY RZ
   axis XYZ
   position 0 0 0  
   orientation 0 0 0 
:bonedata
  begin
     id 1 
     name lhipjoint
     direction 0.57768 -0.667037 0.470475 
     length 2.36008 
     axis 0 0 0  XYZ
  end
  begin
     id 2 
     name lfemur
     direction 0.34202 -0.939693 0  
     length 6.97235  
     axis 0 0 20  XYZ
    dof rx ry rz
    limits (-160.0 20.0)
           (-70.0 70.0)
           (-60.0 70.0)
  end
  begin
     id 3 
     name ltibia
     direction 0.34202 -0.939693 0   
     length 6.93428   
     axis 0 0 20   XYZ
    dof rx
    limits (-10.0 170.0)
  end
  begin
     id 4 
     name lfoot
     direction 0.133018 -0.365463 0.921272   
     length 2.18603   
     axis -90 7.62852e-016 20   XYZ
    dof rx rz
    limits (-45.0 90.0)
           (-70.0 20.0)
  end
  begin
     id 5 
     name ltoes
     direction 1.53519e-011 -4.22055e-011 1   
     length 1.07924   
     axis -90 7.62852e-016 20   XYZ
    dof rx
    limits (-90.0 20.0)
  end
  begin
     id 6 
     name rhipjoint
     direction -0.577712 -0.667019 0.470462   
     length 2.36015  
     axis 0 0 0  XYZ 
  end
  begin
     id 7 
     name rfemur
     direction -0.34202 -0.939693 0   
     length 6.71195   
     axis 0 0 -20   XYZ
    dof rx ry rz
    limits (-160.0 20.0)
           (-70.0 70.0)
           (-70.0 60.0)
  end
  begin
     id 8 
     name rtibia
     direction -0.34202 -0.939693 0   
     length 7.04592   
     axis 0 0 -20   XYZ
    dof rx
    limits (-10.0 170.0)
 end
 begin
     id 9 
     name rfoot
     direction -0.113796 -0.312651 0.943027   
     length 2.03846  
     axis -90 -7.62852e-016 -20   XYZ
    dof rx rz
    limits (-45.0 90.0)
           (-20.0 70.0)
  end
  begin
     id 10 
     name rtoes
     direction -1.53586e-011 -4.218e-011 1   
     length 1.01562   
     axis -90 -7.62852e-016 -20   XYZ
    dof rx
    limits (-90.0 20.0)
  end
  begin
     id 11 
     name lowerback
     direction -0.0417299 0.991937 -0.119667   
     length 2.05257   
     axis 0 0 0   XYZ
    dof rx ry rz
    limits (-20.0 45.0)
           (-30.0 30.0)
           (-30.0 30.0)
  end
  begin
     id 12 
     name upperback
     direction -0.00017666 0.999999 0.00105178   
     length 2.05693   
     axis 0 0 0   XYZ
    dof rx ry rz
    limits (-20.0 45.0)
           (-30.0 30.0)
           (-30.0 30.0)
  end
  begin
     id 13 
     name thorax
     direction 0.0185169 0.998203 0.0569866   
     length 2.0932   
     axis 0 0 0   XYZ
    dof rx ry rz
    limits (-20.0 45.0)
           (-30.0 30.0)
           (-30.0 30.0)
  end
  begin
     id 14 
     name lowerneck
     direction -0.0212406 0.982645 0.184277   
     length 1.72509   
     axis 0 0 0   XYZ
    dof rx ry rz
    limits (-20.0 45.0)
           (-30.0 30.0)
           (-30.0 30.0)
  end
  begin
     id 15 
     name upperneck
     direction 0.00528579 0.965323 -0.261004   
     length 1.76294   
     axis 0 0 0   XYZ
    dof rx ry rz
    limits (-20.0 45.0)
           (-30.0 30.0)
           (-30.0 30.0)
  end
  begin
     id 16
     name head
     direction 0.00695421 0.994078 -0.108445  
     length 1.78678  
     axis 0 0 0   XYZ
    dof rx ry rz
    limits (-20.0 45.0)
           (-30.0 30.0)
           (-30.0 30.0)
  end
  begin
     id 17 
     name lclavicle
     direction 0.97277 0.211305 -0.095232  
     length 3.84823  
     axis 0 0 0   XYZ
    dof ry rz
    limits (-20.0 10.0)
           (0.0 20.0)
  end
  begin
     id 18 
     name lhumerus
     direction 1 -4.48957e-011 -1.98313e-027   
     length 4.97185   
     axis 180 -30 -90   XYZ
    dof rx ry rz
    limits (-60.0 90.0)
           (-90.0 90.0)
           (-90.0 90.0)
  end
  begin
     id 19
     name lradius
     direction 1 -4.4898e-011 7.31063e-027   
     length 3.35811   
     axis 180 -30 -90   XYZ
    dof rx
    limits (-10.0 170.0)
  end
  begin
     id 20
     name lwrist
     direction 1 -4.48938e-011 9.95048e-027   
     length 1.67905   
     axis -8.75986e-015 90 90   XYZ
    dof ry
    limits (-180.0 0.0)
 end
  begin
     id 21 
     name lhand
     direction 1 -4.4901e-011 1.9901e-026   
     length 0.622776   
     axis -1.26985e-014 90 90   XYZ
    dof rx rz
    limits (-90.0 90.0)
           (-45.0 45.0)
  end
  begin
     id 22 
     name lfingers
     direction 1 -4.48961e-011 3.98019e-026   
     length 0.502098   
     axis -2.5397e-014 90 90   XYZ
    dof rx
    limits (0.0 90.0)
  end
  begin
     id 23
     name lthumb
     direction 0.707107 -6.34933e-011 0.707107   
     length 0.720915   
     axis -90 45 2.85299e-015   XYZ
    dof rx rz
    limits (-45.0 45.0)
           (-45.0 45.0)
  end
  begin
     id 24 
     name rclavicle
     direction -0.990867 0.133739 -0.0172226   
     length 3.78845  
     axis 0 0 0   XYZ 
    dof ry rz
    limits (-10.0 20.0)
           (-20.0 0.0)
  end
  begin
     id 25 
     name rhumerus
     direction -1 -4.48972e-011 -1.99267e-027  
     length 4.96493   
     axis 180 30 90   XYZ
    dof rx ry rz
    limits (-90.0 60.0)
           (-90.0 90.0)
           (-90.0 90.0)
  end
  begin
     id 26 
     name rradius
     direction -1 -4.48969e-011 8.96093e-027   
     length 3.34929   
     axis 180 30 90   XYZ
    dof rx
    limits (-10.0 170.0)
  end
  begin
     id 27 
     name rwrist
     direction -1 -4.48953e-011 9.95048e-027   
     length 1.67464   
     axis -8.75986e-015 -90 -90   XYZ
    dof ry
    limits (-180.0 0.0)
  end
  begin
     id 28
     name rhand
     direction -1 -4.49001e-011 1.9901e-026   
     length 0.638041   
     axis -1.26985e-014 -90 -90   XYZ
    dof rx rz
    limits (-90.0 90.0)
           (-45.0 45.0)
  end
  begin
     id 29
     name rfingers
     direction -1 -4.48967e-011 3.98019e-026   
     length 0.514405   
     axis -2.5397e-014 -90 -90   XYZ
    dof rx
    limits (0.0 90.0)
  end
  begin
     id 30
     name rthumb
     direction -0.707107 -6.34904e-011 0.707107   
     length 0.738586   
     axis -90 -45 -2.85299e-015   XYZ
    dof rx rz
    limits (-45.0 45.0)
           (-45.0 45.0)
  end
:hierarchy
  begin
    root lhipjoint rhipjoint lowerback
    lhipjoint lfemur
    lfemur ltibia
    ltibia lfoot
    lfoot ltoes
    rhipjoint rfemur
    rfemur rtibia
    rtibia rfoot
    rfoot rtoes
    lowerback upperback
    upperback thorax
    thorax lowerneck lclavicle rclavicle
    lowerneck upperneck
    upperneck head
    lclavicle lhumerus
    lhumerus lradius
    lradius lwrist
    lwrist lhand lthumb
    lhand lfingers
    rclavicle rhumerus
    rhumerus rradius
    rradius rwrist
    rwrist rhand rthumb
    rhand rfingers
  end

#!OML:ASF E:\Mandelcareful walks\Project 1\Capture day 1\Session 1\Subject1.ASF
:FULLY-SPECIFIED
:DEGREES
166
root -21.5102 15.8737 3.74332 -275.79 78.4023 67.923
lowerback 9.88266 0.321677 -6.34846
upperback 4.96106 0.0606538 -0.974127
thorax -0.358189 0.0181348 2.54953
lowerneck -25.9429 3.25779 -1.26759
upperneck 26.6415 7.97962 -7.38793
head 13.6956 2.37124 -1.16006
rclavicle 2.38542e-015 1.35174e-014
rhumerus -32.4341 2.72437 -82.3833
rradius 36.4598
rwrist -15.4388
rhand -12.3908 -32.064
rfingers 7.12502
rthumb 13.6804 -61.5944
lclavicle 2.38542e-015 1.35174e-014
lhumerus -32.7739 -11.9705 84.9587
lradius 55.8
lwrist 18.6116
lhand -23.8072 -8.10994
lfingers 7.12502
lthumb 2.66353 21.8532
rfemur -41.8065 -8.68142 5.25447
rtibia 50.3388
rfoot -23.4897 -5.81775
rtoes -3.93611
lfemur -37.4496 18.6449 -22.4181
ltibia 50.2024
lfoot -14.4922 25.7319
ltoes 4.12874
167
root -21.4692 15.8669 3.77545 -275.054 78.4911 68.8679
lowerback 10.1584 0.308665 -5.91288
upperback 5.1218 0.0769267 -0.902615
thorax -0.34613 0.0327999 2.378
lowerneck -25.965 3.29617 -1.21889
upperneck 26.7284 8.07246 -7.50681
head 13.7512 2.39729 -1.19723
rclavicle -1.15295e-014 -2.78299e-014
rhumerus -32.2583 2.3301 -81.945
rradius 36.7872
rwrist -15.3356
rhand -12.6404 -32.3991
rfingers 7.12502
rthumb 13.4398 -61.9456
lclavicle -1.15295e-014 -2.78299e-014
lhumerus -33.0561 -12.3359 85.662
lradius 55.843
lwrist 17.9813
lhand -22.6862 -8.84306
lfingers 7.12502
lthumb 3.74616 21.1038
rfemur -41.3754 -8.6859 5.37621
rtibia 50.4328
rfoot -23.8404 -5.84183
rtoes -3.37864
lfemur -38.5395 18.6717 -22.4247
ltibia 51.9251
lfoot -13.4119 25.3361
ltoes 5.06897
168
root -21.4269 15.8554 3.7935 -276.503 78.5149 67.5471
lowerback 10.4803 0.452364 -5.56665
upperback 5.20881 0.283501 -0.810632
thorax -0.450362 0.143243 2.25718
lowerneck -26.0975 3.30156 -1.12568
upperneck 26.8941 8.18441 -7.8132
head 13.8797 2.40463 -1.31207
rclavicle 4.37326e-015 -1.59028e-015
rhumerus -32.1889 2.16589 -81.5248
rradius 37.3418
rwrist -15.472
rhand -12.7371 -32.9969
rfingers 7.12502
rthumb 13.3466 -62.5495
lclavicle 4.37326e-015 -1.59028e-015
lhumerus -33.6185 -12.7271 86.5687
lradius 55.9987
lwrist 16.6553
lhand -22.7462 -10.0846
lfingers 7.12502
lthumb 3.6882 19.8632
rfemur -41.2268 -8.4553 5.5113
rtibia 50.6139
rfoot -24.0658 -5.77377
rtoes -3.21466
lfemur -39.5306 19.0046 -22.4578
ltibia 53.32
lfoot -12.8736 23.9394
ltoes 5.24286
169
root -21.3764 15.8419 3.80068 -277.383 78.5487 66.7161
lowerback 10.6345 0.565348 -5.1516
upperback 5.30295 0.468154 -0.756419
thorax -0.451851 0.241501 2.06021
lowerneck -26.2079 3.2968 -1.05081
upperneck 27.0261 8.26643 -8.06905
head 13.9847 2.40583 -1.41027
rclavicle -1.51076e-014 -3.73715e-014
rhumerus -32.1973 2.18615 -81.2944
rradius 38.2547
rwrist -15.9333
rhand -12.9153 -33.9314
rfingers 7.12502
rthumb 13.1749 -63.4951
lclavicle -1.51076e-014 -3.73715e-014
lhumerus -34.1621 -13.139 87.4765
lradius 56.2937
lwrist 15.6908
lhand -22.4741 -10.3372
lfingers 7.12502
lthumb 3.95098 19.6059
rfemur -41.0889 -8.41419 5.61552
rtibia 50.7679
rfoot -24.1955 -5.64589
rtoes -3.27664
lfemur -40.5401 19.2342 -22.6133
ltibia 54.2287
lfoot -12.1647 21.5943
ltoes 3.93388
170
root -21.3235 15.8334 3.80176 -276.968 78.663 67.1729
lowerback 10.666 0.571212 -4.6235
upperback 5.51254 0.539694 -0.72356
thorax -0.255566 0.282709 1.79096
lowerneck -26.4304 3.32502 -1.01186
upperneck 27.0256 8.36056 -8.23959
head 14.0494 2.41948 -1.46403
rclavicle 0 -8.74653e-015
rhumerus -32.1811 2.45011 -81.2673
rradius 39.5573
rwrist -16.8409
rhand -13.1962 -34.3395
rfingers 7.12502
rthumb 12.904 -63.9206
lclavicle 0 -8.74653e-015
lhumerus -34.7002 -13.6243 88.2879
lradius 57.0276
lwrist 15.8605
lhand -21.5976 -9.07973
lfingers 7.12502
lthumb 4.79729 20.846
rfemur -40.8382 -8.56379 5.70331
rtibia 50.8951
rfoot -24.3504 -5.47567
rtoes -2.68028
lfemur -41.582 19.2068 -22.8758
ltibia 54.6365
lfoot -11.3092 18.9769
ltoes 1.80352
171
root -21.2691 15.8332 3.8019 -276.59 78.7513 67.6146
lowerback 11.0001 0.593999 -4.27122
upperback 5.57907 0.592829 -0.648363
thorax -0.371262 0.318579 1.66305
lowerneck -26.6073 3.40972 -0.83153
upperneck 27.0635 8.54875 -8.59302
head 14.146 2.46387 -1.59667
rclavicle 8.74653e-015 -7.15625e-015
rhumerus -32.5931 3.29531 -81.3797
rradius 41.1695
rwrist -18.3084
rhand -13.289 -34.0073
rfingers 7.12502
rthumb 12.8146 -63.5939
lclavicle 8.74653e-015 -7.15625e-015
lhumerus -35.8364 -14.1365 89.239
lradius 58.3967
lwrist 16.771
lhand -21.4787 -8.51365
lfingers 7.12502
lthumb 4.91213 21.4094
rfemur -40.5222 -8.59436 5.72972
rtibia 50.9773
rfoot -24.5226 -5.37821
rtoes -2.1354
lfemur -42.4695 18.9742 -23.1236
ltibia 54.49
lfoot -10.9359 16.6313
ltoes 0.457606
172
root -21.2143 15.8247 3.80082 -276.867 78.7638 67.3244
lowerback 11.2653 0.671456 -4.09924
upperback 5.64544 0.705617 -0.579083
thorax -0.452665 0.379757 1.62346
lowerneck -26.7302 3.48917 -0.650512
upperneck 27.0738 8.74013 -8.98906
head 14.2248 2.50696 -1.74629
rclavicle 4.77083e-015 2.14687e-014
rhumerus -33.2109 4.78021 -81.6998
rradius 43.1309
rwrist -20.4581
rhand -13.0971 -33.9591
rfingers 7.12502
rthumb 12.9996 -63.5341
lclavicle 4.77083e-015 2.14687e-014
lhumerus -37.026 -14.8221 90.2205
lradius 60.0226
lwrist 18.338
lhand -21.6826 -7.56461
lfingers 7.12502
lthumb 4.71529 22.3629
rfemur -40.3532 -8.50798 5.72147
rtibia 51.0392
rfoot -24.6558 -5.38814
rtoes -2.25783
lfemur -43.2987 18.7244 -23.3829
ltibia 53.7853
lfoot -10.648 14.6412
ltoes -0.363721
173
root -21.155 15.8153 3.79718 -276.599 78.7635 67.6177
lowerback 11.5654 0.736331 -4.04956
upperback 5.76738 0.795006 -0.473526
thorax -0.493708 0.426697 1.69228
lowerneck -26.9281 3.51554 -0.655416
upperneck 27.0482 8.88256 -9.24883
head 14.2842 2.52664 -1.81893
rclavicle 1.19271e-014 3.4191e-014
rhumerus -33.94 6.67866 -82.0786
rradius 45.5289
rwrist -23.2005
rhand -12.4184 -33.8277
rfingers 7.12502
rthumb 13.6538 -63.3599
lclavicle 1.19271e-014 3.4191e-014
lhumerus -38.0655 -15.5387 91.2674
lradius 61.6702
lwrist 20.1237
lhand -21.8418 -4.81579
lfingers 7.12502
lthumb 4.56148 25.1151
rfemur -40.0908 -8.58076 5.68334
rtibia 51.1106
rfoot -24.8419 -5.42194
rtoes -2.35655
lfemur -43.9501 18.3187 -23.6141
ltibia 52.595
lfoot -10.3538 12.9025
ltoes -1.64124
174
root -21.0871 15.8163 3.7922 -275.262 78.851 69.1176
lowerback 11.9736 0.762439 -3.87574
upperback 5.97164 0.850214 -0.422452
thorax -0.503032 0.461337 1.63781
lowerneck -27.1707 3.49751 -0.661876
upperneck 27.0079 8.90421 -9.36449
head 14.3277 2.51206 -1.85764
rclavicle -7.95139e-016 -3.26007e-014
rhumerus -34.6961 8.47201 -82.5749
rradius 48.1802
rwrist -25.8028
rhand -11.06 -33.2922
rfingers 7.12502
rthumb 14.9627 -62.7317
lclavicle -7.95139e-016 -3.26007e-014
lhumerus -39.0058 -16.3546 92.1854
lradius 63.4164
lwrist 21.1961
lhand -22.9117 -4.07459
lfingers 7.12502
lthumb 3.52838 25.876
rfemur -39.5116 -8.78601 5.6402
rtibia 51.1763
rfoot -25.1717 -5.40469
rtoes -2.03948
lfemur -44.2973 17.6487 -23.6569
ltibia 50.9618
lfoot -10.1627 11.4794
ltoes -2.82172
175
root -21.0246 15.8053 3.77667 -276.493 78.9418 67.5976
lowerback 11.9049 0.94697 -3.64228
upperback 6.12002 1.12937 -0.448546
thorax -0.323342 0.602998 1.44776
lowerneck -27.5257 3.51294 -0.597335
upperneck 27.0525 8.94153 -9.43571
head 14.4317 2.50915 -1.88828
rclavicle -2.14687e-014 -3.02153e-014
rhumerus -35.3507 10.2644 -83.2293
rradius 50.8572
rwrist -27.6626
rhand -10.0138 -33.1982
rfingers 7.12502
rthumb 15.9704 -62.5599
lclavicle -2.14687e-014 -3.02153e-014
lhumerus -39.8688 -17.1599 92.8873
lradius 65.177
lwrist 20.5623
lhand -24.2611 -5.23506
lfingers 7.12502
lthumb 2.22518 24.7331
rfemur -39.6837 -8.69399 5.74428
rtibia 51.2807
rfoot -25.3089 -5.22222
rtoes -1.88706
lfemur -45.0932 17.2972 -23.6362
ltibia 49.069
lfoot -10.0857 10.8
ltoes -3.71662
176
root -20.9553 15.7937 3.75942 -276.76 79.0022 67.2081
lowerback 11.9482 1.03699 -3.55904
upperback 6.32159 1.27097 -0.483067
thorax -0.140675 0.675718 1.34963
lowerneck -27.8028 3.59809 -0.441398
upperneck 27.0201 9.02084 -9.50927
head 14.4922 2.53832 -1.92567
rclavicle -1.59028e-015 -2.38542e-015
rhumerus -35.9004 12.124 -83.9903
rradius 53.3222
rwrist -28.9472
rhand -10.5002 -32.7256
rfingers 7.12502
rthumb 15.5019 -62.1242
lclavicle -1.59028e-015 -2.38542e-015
lhumerus -40.7643 -17.7829 93.4823
lradius 66.8839
lwrist 18.1676
lhand -25.0513 -5.47813
lfingers 7.12502
lthumb 1.46199 24.4966
rfemur -39.5901 -8.88399 5.76088
rtibia 51.3717
rfoot -25.4801 -4.9181
rtoes -1.39925
lfemur -45.5421 16.7116 -23.5357
ltibia 46.9434
lfoot -10.1773 10.7309
ltoes -4.55633
